<svg width="575" height="82" viewBox="0 0 575 82" fill="none" xmlns="http://www.w3.org/2000/svg">
<path d="M0 80.6295C4.79167 80.6295 4.79167 80.2768 9.58333 80.2768C14.375 80.2768 14.375 72.752 17.5694 72.752C22.3611 72.752 22.3611 72.6345 27.1528 72.6345C31.9444 72.6345 31.9444 63.5813 36.7361 63.5813C41.5278 63.5813 41.5278 72.1642 46.3194 72.1642C49.5139 72.1642 49.5139 80.2768 54.3056 80.2768C59.0972 80.2768 59.0972 47.5912 63.8889 47.5912C68.6806 47.5912 68.6806 58.7607 73.4722 58.7607C78.2639 58.7607 78.2639 43.1233 81.4583 43.1233C86.25 43.1233 86.25 50.2954 91.0417 50.2954C95.8333 50.2954 95.8333 66.1679 100.625 66.1679C105.417 66.1679 105.417 31.1308 110.208 31.1308C113.403 31.1308 113.403 71.8115 118.194 71.8115C122.986 71.8115 122.986 27.1333 127.778 27.1333C132.569 27.1333 132.569 19.0206 137.361 19.0206C142.153 19.0206 142.153 37.3622 145.347 37.3622C150.139 37.3622 150.139 71.6939 154.931 71.6939C159.722 71.6939 159.722 59.5837 164.514 59.5837C169.306 59.5837 169.306 40.184 174.097 40.184C177.292 40.184 177.292 70.8709 182.083 70.8709C186.875 70.8709 186.875 62.5231 191.667 62.5231C196.458 62.5231 196.458 46.4154 201.25 46.4154C206.042 46.4154 206.042 69.8127 209.236 69.8127C214.028 69.8127 214.028 80.5119 218.819 80.5119C223.611 80.5119 223.611 69.5775 228.403 69.5775C233.194 69.5775 233.194 19.4909 237.986 19.4909C241.181 19.4909 241.181 17.3746 245.972 17.3746C250.764 17.3746 250.764 22.4303 255.556 22.4303C260.347 22.4303 260.347 36.6568 265.139 36.6568C269.931 36.6568 269.931 42.4179 273.125 42.4179C277.917 42.4179 277.917 54.0577 282.708 54.0577C287.5 54.0577 287.5 75.3387 292.292 75.3387C297.083 75.3387 297.083 0.796631 301.875 0.796631C305.069 0.796631 305.069 53.705 309.861 53.705C314.653 53.705 314.653 78.5132 319.444 78.5132C324.236 78.5132 324.236 65.9327 329.028 65.9327C333.819 65.9327 333.819 53.705 337.014 53.705C341.806 53.705 341.806 15.0231 346.597 15.0231C351.389 15.0231 351.389 40.0664 356.181 40.0664C360.972 40.0664 360.972 15.611 365.764 15.611C368.958 15.611 368.958 5.61717 373.75 5.61717C378.542 5.61717 378.542 67.9315 383.333 67.9315C388.125 67.9315 388.125 42.0652 392.917 42.0652C397.708 42.0652 397.708 40.8894 400.903 40.8894C405.694 40.8894 405.694 64.9921 410.486 64.9921C415.278 64.9921 415.278 35.8337 420.069 35.8337C424.861 35.8337 424.861 33.9526 429.653 33.9526C432.847 33.9526 432.847 49.0021 437.639 49.0021C442.431 49.0021 442.431 28.0738 447.222 28.0738C452.014 28.0738 452.014 35.1283 456.806 35.1283C461.597 35.1283 461.597 61.1122 464.792 61.1122C469.583 61.1122 469.583 39.361 474.375 39.361C479.167 39.361 479.167 67.6964 483.958 67.6964C488.75 67.6964 488.75 42.653 493.542 42.653C496.736 42.653 496.736 53.2347 501.528 53.2347C506.319 53.2347 506.319 66.7558 511.111 66.7558C515.903 66.7558 515.903 66.9909 520.694 66.9909C525.486 66.9909 525.486 63.8164 528.681 63.8164C533.472 63.8164 533.472 78.0429 538.264 78.0429C543.056 78.0429 543.056 73.9278 547.847 73.9278C552.639 73.9278 552.639 75.1035 557.431 75.1035C560.625 75.1035 560.625 78.1605 565.417 78.1605C570.208 78.1605 570.208 80.6295 575 80.6295" stroke="#007AFF"/>
</svg>
