<svg width="575" height="139" viewBox="0 0 575 139" fill="none" xmlns="http://www.w3.org/2000/svg">
<path d="M17.5694 72.752C14.375 72.752 14.375 80.2768 9.58333 80.2768C8.27551 80.2768 2.40113 80.2768 0.0051061 80.6295C0.00448496 88.4482 0.0051061 132.827 0 139H575V80.6295C570.213 79.8065 568.616 78.1605 565.417 78.1605C560.625 78.1605 560.625 75.1035 557.431 75.1035C552.639 75.1035 552.639 73.9278 547.847 73.9278C543.056 73.9278 543.056 78.0429 538.264 78.0429C533.472 78.0429 533.472 63.8164 528.681 63.8164C525.486 63.8164 525.486 66.9909 520.694 66.9909C515.903 66.9909 515.903 66.7558 511.111 66.7558C506.319 66.7558 506.319 53.2347 501.528 53.2347C496.736 53.2347 496.736 42.653 493.542 42.653C488.75 42.653 488.75 67.6964 483.958 67.6964C479.167 67.6964 479.167 39.361 474.375 39.361C469.583 39.361 469.583 61.1122 464.792 61.1122C461.597 61.1122 461.597 35.1283 456.806 35.1283C452.014 35.1283 452.014 28.0738 447.222 28.0738C442.431 28.0738 442.431 49.002 437.639 49.002C432.847 49.002 432.847 33.9526 429.653 33.9526C424.861 33.9526 424.861 35.8337 420.069 35.8337C415.278 35.8337 415.278 64.9921 410.486 64.9921C405.694 64.9921 405.694 40.8894 400.903 40.8894C397.708 40.8894 397.708 42.0652 392.917 42.0652C388.125 42.0652 388.125 67.9315 383.333 67.9315C378.542 67.9315 378.542 5.61717 373.75 5.61717C368.958 5.61717 368.958 15.611 365.764 15.611C360.972 15.611 360.972 40.0664 356.181 40.0664C351.389 40.0664 351.389 15.0231 346.597 15.0231C341.806 15.0231 341.806 53.705 337.014 53.705C333.819 53.705 333.819 65.9327 329.028 65.9327C324.236 65.9327 324.236 78.5132 319.444 78.5132C314.653 78.5132 314.653 53.705 309.861 53.705C305.069 53.705 305.069 0.796631 301.875 0.796631C297.083 0.796631 297.083 75.3387 292.292 75.3387C287.5 75.3387 287.5 54.0577 282.708 54.0577C277.917 54.0577 277.917 42.4179 273.125 42.4179C269.931 42.4179 269.931 36.6568 265.139 36.6568C260.347 36.6568 260.347 22.4303 255.556 22.4303C250.764 22.4303 250.764 17.3746 245.972 17.3746C241.181 17.3746 241.181 19.4909 237.986 19.4909C233.194 19.4909 233.194 69.5775 228.403 69.5775C223.611 69.5775 223.611 80.5119 218.819 80.5119C214.028 80.5119 214.028 69.8127 209.236 69.8127C206.042 69.8127 206.042 46.4154 201.25 46.4154C196.458 46.4154 196.458 62.5231 191.667 62.5231C186.875 62.5231 186.875 70.8708 182.083 70.8708C177.292 70.8708 177.292 40.184 174.097 40.184C169.306 40.184 169.306 59.5837 164.514 59.5837C159.722 59.5837 159.722 71.6939 154.931 71.6939C150.139 71.6939 150.139 37.3622 145.347 37.3622C142.153 37.3622 142.153 19.0206 137.361 19.0206C132.569 19.0206 132.569 27.1332 127.778 27.1332C122.986 27.1332 122.986 71.8114 118.194 71.8114C113.403 71.8114 113.403 31.1308 110.208 31.1308C105.417 31.1308 105.417 66.1679 100.625 66.1679C95.8333 66.1679 95.8333 50.2954 91.0417 50.2954C86.25 50.2954 86.25 43.1233 81.4583 43.1233C78.2639 43.1233 78.2639 58.7607 73.4722 58.7607C68.6806 58.7607 68.6806 47.5912 63.8889 47.5912C59.0972 47.5912 59.0972 80.2768 54.3056 80.2768C49.5139 80.2768 49.5139 72.1642 46.3194 72.1642C41.5278 72.1642 41.5278 63.5813 36.7361 63.5813C31.9444 63.5813 31.9444 72.6345 27.1528 72.6345C22.3611 72.6345 22.3611 72.752 17.5694 72.752Z" fill="#007AFF" fill-opacity="0.33"/>
<path d="M17.5694 72.752C14.375 72.752 14.375 80.2768 9.58333 80.2768C8.27551 80.2768 2.40113 80.2768 0.0051061 80.6295C0.00448496 88.4482 0.0051061 132.827 0 139H575V80.6295C570.213 79.8065 568.616 78.1605 565.417 78.1605C560.625 78.1605 560.625 75.1035 557.431 75.1035C552.639 75.1035 552.639 73.9278 547.847 73.9278C543.056 73.9278 543.056 78.0429 538.264 78.0429C533.472 78.0429 533.472 63.8164 528.681 63.8164C525.486 63.8164 525.486 66.9909 520.694 66.9909C515.903 66.9909 515.903 66.7558 511.111 66.7558C506.319 66.7558 506.319 53.2347 501.528 53.2347C496.736 53.2347 496.736 42.653 493.542 42.653C488.75 42.653 488.75 67.6964 483.958 67.6964C479.167 67.6964 479.167 39.361 474.375 39.361C469.583 39.361 469.583 61.1122 464.792 61.1122C461.597 61.1122 461.597 35.1283 456.806 35.1283C452.014 35.1283 452.014 28.0738 447.222 28.0738C442.431 28.0738 442.431 49.002 437.639 49.002C432.847 49.002 432.847 33.9526 429.653 33.9526C424.861 33.9526 424.861 35.8337 420.069 35.8337C415.278 35.8337 415.278 64.9921 410.486 64.9921C405.694 64.9921 405.694 40.8894 400.903 40.8894C397.708 40.8894 397.708 42.0652 392.917 42.0652C388.125 42.0652 388.125 67.9315 383.333 67.9315C378.542 67.9315 378.542 5.61717 373.75 5.61717C368.958 5.61717 368.958 15.611 365.764 15.611C360.972 15.611 360.972 40.0664 356.181 40.0664C351.389 40.0664 351.389 15.0231 346.597 15.0231C341.806 15.0231 341.806 53.705 337.014 53.705C333.819 53.705 333.819 65.9327 329.028 65.9327C324.236 65.9327 324.236 78.5132 319.444 78.5132C314.653 78.5132 314.653 53.705 309.861 53.705C305.069 53.705 305.069 0.796631 301.875 0.796631C297.083 0.796631 297.083 75.3387 292.292 75.3387C287.5 75.3387 287.5 54.0577 282.708 54.0577C277.917 54.0577 277.917 42.4179 273.125 42.4179C269.931 42.4179 269.931 36.6568 265.139 36.6568C260.347 36.6568 260.347 22.4303 255.556 22.4303C250.764 22.4303 250.764 17.3746 245.972 17.3746C241.181 17.3746 241.181 19.4909 237.986 19.4909C233.194 19.4909 233.194 69.5775 228.403 69.5775C223.611 69.5775 223.611 80.5119 218.819 80.5119C214.028 80.5119 214.028 69.8127 209.236 69.8127C206.042 69.8127 206.042 46.4154 201.25 46.4154C196.458 46.4154 196.458 62.5231 191.667 62.5231C186.875 62.5231 186.875 70.8708 182.083 70.8708C177.292 70.8708 177.292 40.184 174.097 40.184C169.306 40.184 169.306 59.5837 164.514 59.5837C159.722 59.5837 159.722 71.6939 154.931 71.6939C150.139 71.6939 150.139 37.3622 145.347 37.3622C142.153 37.3622 142.153 19.0206 137.361 19.0206C132.569 19.0206 132.569 27.1332 127.778 27.1332C122.986 27.1332 122.986 71.8114 118.194 71.8114C113.403 71.8114 113.403 31.1308 110.208 31.1308C105.417 31.1308 105.417 66.1679 100.625 66.1679C95.8333 66.1679 95.8333 50.2954 91.0417 50.2954C86.25 50.2954 86.25 43.1233 81.4583 43.1233C78.2639 43.1233 78.2639 58.7607 73.4722 58.7607C68.6806 58.7607 68.6806 47.5912 63.8889 47.5912C59.0972 47.5912 59.0972 80.2768 54.3056 80.2768C49.5139 80.2768 49.5139 72.1642 46.3194 72.1642C41.5278 72.1642 41.5278 63.5813 36.7361 63.5813C31.9444 63.5813 31.9444 72.6345 27.1528 72.6345C22.3611 72.6345 22.3611 72.752 17.5694 72.752Z" fill="url(#paint0_linear_11:170)"/>
<defs>
<linearGradient id="paint0_linear_11:170" x1="287.505" y1="0.796631" x2="287.505" y2="139" gradientUnits="userSpaceOnUse">
<stop stop-color="white" stop-opacity="0"/>
<stop offset="1" stop-color="white"/>
</linearGradient>
</defs>
</svg>
