<svg width="12" height="4" viewBox="0 0 12 4" fill="none" xmlns="http://www.w3.org/2000/svg">
<path fill-rule="evenodd" clip-rule="evenodd" d="M1.33333 3.33332C0.596954 3.33332 0 2.73637 0 1.99999C0 1.26361 0.596954 0.666656 1.33333 0.666656C2.06971 0.666656 2.66667 1.26361 2.66667 1.99999C2.66667 2.73637 2.06971 3.33332 1.33333 3.33332ZM6 3.33332C5.26362 3.33332 4.66667 2.73637 4.66667 1.99999C4.66667 1.26361 5.26362 0.666656 6 0.666656C6.73638 0.666656 7.33333 1.26361 7.33333 1.99999C7.33333 2.73637 6.73638 3.33332 6 3.33332ZM9.33333 1.99999C9.33333 2.73637 9.93029 3.33332 10.6667 3.33332C11.403 3.33332 12 2.73637 12 1.99999C12 1.26361 11.403 0.666656 10.6667 0.666656C9.93029 0.666656 9.33333 1.26361 9.33333 1.99999Z" fill="#333333"/>
</svg>
