<svg width="21" height="22" viewBox="0 0 21 22" fill="none" xmlns="http://www.w3.org/2000/svg">
<path d="M1 15C0.447715 15 0 15.4477 0 16C0 16.5523 0.447715 17 1 17V15ZM4 8H3H4ZM18 8H19H18ZM12.73 20L13.595 20.5018C13.7744 20.1924 13.775 19.8108 13.5965 19.5009C13.418 19.191 13.0876 19 12.73 19V20ZM9.27 20V19C8.91237 19 8.58196 19.191 8.40346 19.5009C8.22497 19.8108 8.22555 20.1924 8.405 20.5018L9.27 20ZM21 15H1V17H21V15ZM1 17C3.20914 17 5 15.2091 5 13H3C3 14.1046 2.10457 15 1 15V17ZM5 13V8H3V13H5ZM5 8C5 4.68629 7.68629 2 11 2V0C6.58172 0 3 3.58172 3 8H5ZM11 2C14.3137 2 17 4.68629 17 8H19C19 3.58172 15.4183 0 11 0V2ZM17 8V13H19V8H17ZM17 13C17 15.2091 18.7909 17 21 17V15C19.8954 15 19 14.1046 19 13H17ZM11.865 19.4982C11.6861 19.8066 11.3565 19.9965 11 19.9965V21.9965C12.0696 21.9965 13.0583 21.427 13.595 20.5018L11.865 19.4982ZM11 19.9965C10.6435 19.9965 10.3139 19.8066 10.135 19.4982L8.405 20.5018C8.9417 21.427 9.9304 21.9965 11 21.9965V19.9965ZM9.27 21H12.73V19H9.27V21Z" fill="#333333"/>
</svg>
